<svg xmlns="http://www.w3.org/2000/svg" xml:space="preserve" viewBox="0 0 142 39"><g style="display:inline"><path d="M13.31 24.485c4.854 0 8.156-2.4 8.156-6.604v-.057c0-3.838-2.794-5.277-7.422-6.35-3.048-.762-3.754-1.129-3.754-2.173v-.056c0-.79.734-1.412 2.173-1.412 1.806 0 3.782.706 5.673 2.032l2.737-3.894c-2.23-1.778-4.882-2.71-8.269-2.71-4.798 0-7.817 2.71-7.817 6.492v.056c0 4.205 3.189 5.419 7.563 6.406 2.935.678 3.613 1.214 3.613 2.117v.057c0 .987-.875 1.524-2.484 1.524-2.37 0-4.515-.875-6.547-2.456l-3.077 3.67c2.512 2.257 5.87 3.358 9.455 3.358m11.373-.34h5.447V18.22h2.963c4.996 0 8.721-2.512 8.721-7.366v-.056c0-4.488-3.274-7.197-8.382-7.197h-8.749Zm5.447-10.3V8.257h2.85c2.117 0 3.387.931 3.387 2.766v.056c0 1.665-1.27 2.766-3.33 2.766zm14.648 10.3h5.475V3.6h-5.475zm9.736 0h16.454V19.49H59.905v-3.5h9.82v-4.374h-9.82V8.257h10.922V3.6H54.514Z" aria-label="SPIE" style="font-weight:900;font-size:28.2222px;font-family:GothamSSm;-inkscape-font-specification:&quot;GothamSSm Heavy&quot;;stroke-width:.264583" transform="translate(-3.326 -2.732)"/><g aria-label="STUDENT CHAPTER" style="font-size:11.2889px;line-height:1.1;fill:#fe0201;stroke-width:.264583"><path d="M89.85 11.71c1.76 0 3.003-.915 3.003-2.53v-.022c0-1.41-.949-2.032-2.62-2.45-1.444-.36-1.806-.575-1.806-1.128v-.023c0-.418.384-.768 1.107-.768.722 0 1.433.294 2.156.825l.914-1.31c-.846-.677-1.829-1.039-3.036-1.039-1.671 0-2.868.971-2.868 2.45v.023c0 1.625 1.061 2.088 2.732 2.506 1.4.361 1.693.587 1.693 1.084v.022c0 .508-.474.836-1.241.836-.96 0-1.728-.384-2.484-1.016l-1.027 1.23c.993.892 2.212 1.31 3.477 1.31m6.457-.113h1.739V4.98h2.517V3.378h-6.785v1.603h2.53zm9.167.124c2.201 0 3.59-1.22 3.59-3.703v-4.64h-1.728v4.72c0 1.354-.7 2.031-1.84 2.031s-1.829-.711-1.829-2.1V3.38h-1.738v4.707c0 2.393 1.355 3.635 3.545 3.635m5.554-.124h3.172c2.574 0 4.369-1.795 4.369-4.11v-.022c0-2.314-1.795-4.087-4.369-4.087h-3.172zm3.172-6.65c1.524 0 2.551 1.05 2.551 2.54v.023c0 1.49-1.027 2.518-2.551 2.518h-1.445v-5.08Zm6.096 6.65h6.231V10.05h-4.515V8.233h3.928V6.686h-3.928V4.925h4.459V3.378h-6.175zm7.959 0h1.704V6.246l4.087 5.35h1.479V3.379h-1.716V8.56l-3.963-5.182h-1.591zm11.3 0h1.738V4.98h2.518V3.378h-6.785v1.603h2.529zM90.775 24.293c1.57 0 2.53-.564 3.365-1.456l-1.107-1.118c-.654.598-1.242.982-2.201.982-1.445 0-2.45-1.208-2.45-2.653v-.022c0-1.445 1.028-2.63 2.45-2.63.858 0 1.501.36 2.145.948l1.106-1.276c-.779-.745-1.682-1.264-3.24-1.264-2.517 0-4.278 1.896-4.278 4.244v.023c0 2.36 1.795 4.222 4.21 4.222m4.922-.135h1.728v-3.33h3.454v3.33h1.739v-8.219h-1.739v3.285h-3.454V15.94h-1.728zm8.298 0h1.772l.768-1.874h3.556l.767 1.874h1.818l-3.533-8.275h-1.603zm3.16-3.41 1.163-2.788 1.152 2.788zm6.92 3.41h1.728V21.65h1.434c1.828 0 3.307-.97 3.307-2.867v-.023c0-1.659-1.185-2.822-3.138-2.822h-3.33zm1.728-4.053v-2.597h1.456c.949 0 1.536.44 1.536 1.287v.023c0 .734-.554 1.287-1.502 1.287zm8.14 4.053h1.738v-6.616h2.517V15.94h-6.784v1.603h2.528zm5.757 0h6.231V22.61h-4.515v-1.818h3.928v-1.546h-3.928v-1.761h4.459v-1.547H129.7zm7.958 0h1.728v-2.676h1.5l1.818 2.676h2.032l-2.054-2.97c1.072-.372 1.795-1.196 1.795-2.54v-.022c0-.779-.226-1.389-.689-1.851-.553-.554-1.354-.836-2.393-.836h-3.737zm1.728-4.211v-2.439h1.862c.915 0 1.479.407 1.479 1.208v.023c0 .722-.542 1.208-1.445 1.208z" style="font-weight:700;font-family:GothamSSm;-inkscape-font-specification:&quot;GothamSSm Bold&quot;" transform="translate(-3.326 -2.732)"/></g><g aria-label="CARLETON UNIVERSITY" style="font-size:6.52639px;line-height:1.1;fill:#85848c;stroke-width:.264583"><path d="M89.008 33.79c.907 0 1.462-.326 1.945-.842l-.64-.646c-.378.346-.718.568-1.272.568-.836 0-1.417-.699-1.417-1.534v-.013c0-.835.594-1.52 1.417-1.52.496 0 .868.208 1.24.548l.64-.738c-.451-.43-.973-.73-1.874-.73-1.455 0-2.473 1.096-2.473 2.453v.013c0 1.364 1.037 2.44 2.434 2.44m2.434-.078h1.025l.444-1.084h2.056l.443 1.084h1.051l-2.043-4.784h-.926zm1.828-1.971.672-1.612.666 1.612zm4 1.97h.999v-1.546h.868l1.05 1.547h1.175l-1.187-1.717c.62-.215 1.037-.692 1.037-1.468v-.013c0-.45-.13-.803-.398-1.07q-.481-.482-1.383-.484h-2.16zm.999-2.434v-1.41h1.077c.528 0 .855.236.855.699v.013c0 .418-.314.698-.836.698zm3.961 2.435h3.394v-.914h-2.395V28.96h-.999zm4.25 0h3.602v-.894h-2.61v-1.051h2.27v-.894h-2.27v-1.018h2.577v-.895h-3.57zm5.716 0h1.005v-3.825h1.456v-.927h-3.923v.927h1.462zm5.417.078c1.462 0 2.526-1.116 2.526-2.454v-.013c0-1.351-1.05-2.44-2.513-2.44s-2.526 1.115-2.526 2.453v.013c0 1.351 1.051 2.44 2.513 2.44m.013-.92c-.868 0-1.475-.699-1.475-1.534v-.013c0-.835.6-1.52 1.462-1.52.855 0 1.475.698 1.475 1.533v.013c0 .835-.6 1.52-1.462 1.52m3.511.842h.986v-3.094l2.362 3.094h.855V28.96h-.992v2.996l-2.29-2.996h-.92zM88.76 41.045c1.273 0 2.075-.705 2.075-2.14v-2.683h-.998v2.728c0 .783-.405 1.175-1.064 1.175-.66 0-1.057-.411-1.057-1.214v-2.689H86.71v2.722c0 1.383.783 2.101 2.049 2.101m3.21-.072h.986V37.88l2.363 3.093h.855v-4.75h-.992v2.995l-2.29-2.996h-.921zm5.463 0h1.006v-4.75h-1.006zm3.786.033h.887l1.932-4.784h-1.083l-1.28 3.407-1.279-3.407h-1.109zm3.622-.033h3.603v-.894h-2.611v-1.05h2.271v-.895h-2.271v-1.018h2.578v-.894h-3.57zm4.601 0h.999v-1.546h.868l1.05 1.546h1.175l-1.188-1.716c.62-.215 1.038-.692 1.038-1.469v-.013c0-.45-.13-.802-.398-1.07q-.481-.481-1.384-.483h-2.16zm.999-2.434v-1.41h1.076c.53 0 .855.235.855.699v.013c0 .417-.313.698-.835.698zm5.645 2.5c1.018 0 1.736-.529 1.736-1.462v-.013c0-.816-.548-1.175-1.514-1.417-.836-.208-1.044-.332-1.044-.652v-.013c0-.242.221-.444.64-.444.417 0 .828.17 1.246.476l.528-.757c-.49-.391-1.057-.6-1.755-.6-.966 0-1.658.561-1.658 1.416v.013c0 .94.614 1.208 1.58 1.449.809.209.978.34.978.627v.013c0 .293-.274.483-.718.483-.554 0-.998-.222-1.435-.588l-.594.712a2.96 2.96 0 0 0 2.01.757m2.76-.066h1.006v-4.75h-1.005zm3.381 0h1.005V37.15h1.456v-.927h-3.923v.927h1.462zm4.673 0h1.005v-1.892l1.84-2.859h-1.141l-1.195 1.945-1.168-1.945h-1.175L126.9 39.1z" style="font-weight:700;font-family:GothamSSm;-inkscape-font-specification:&quot;GothamSSm Bold&quot;" transform="translate(-3.326 -2.732)"/></g><path d="M81.599 21.495a3.57 3.57 0 0 1-3.572 3.572 3.57 3.57 0 0 1-3.572-3.572 3.57 3.57 0 0 1 3.572-3.572 3.57 3.57 0 0 1 3.572 3.572" style="stroke-width:.268695" transform="translate(-3.326 -2.732)"/></g></svg>